<svg width="300" height="300" viewBox="0 0 300 300" fill="none" xmlns="http://www.w3.org/2000/svg">
<path fill-rule="evenodd" clip-rule="evenodd" d="M150 6C229.529 6 294 70.471 294 150C294 229.529 229.529 294 150 294C70.471 294 6 229.529 6 150C6 114.492 18.8515 81.9865 40.1569 56.88L37.4101 50.8835C14.125 77.3133 2.24179e-06 112.007 1.78873e-06 150C8.00843e-07 232.843 67.1573 300 150 300C232.843 300 300 232.843 300 150C300 67.1573 232.843 2.77662e-06 150 1.78873e-06C135.461 1.61536e-06 121.405 2.06848 108.111 5.92722L110.638 11.4456C123.149 7.89844 136.353 6 150 6Z" fill="#F79755"/>
</svg>
