<svg width="300" height="300" viewBox="0 0 300 300" fill="none" xmlns="http://www.w3.org/2000/svg">
<path fill-rule="evenodd" clip-rule="evenodd" d="M294 150C294 229.529 229.529 294 150 294C70.471 294 6 229.529 6 150C6 70.471 70.471 6 150 6C188.482 6 223.438 21.0946 249.271 45.686L255.134 43.0103C228.066 16.409 190.949 0 150 0C67.1573 0 0 67.1573 0 150C0 232.843 67.1573 300 150 300C232.843 300 300 232.843 300 150C300 135.323 297.892 121.138 293.962 107.732L288.444 110.25C292.062 122.876 294 136.212 294 150Z" fill="#FDCE0B"/>
</svg>
