<svg width="301" height="301" viewBox="0 0 301 301" fill="none" xmlns="http://www.w3.org/2000/svg">
<path fill-rule="evenodd" clip-rule="evenodd" d="M113.018 289.159C36.1992 268.576 -9.38867 189.615 11.195 112.796C31.7786 35.977 110.739 -9.61092 187.558 10.9727C264.377 31.5563 309.965 110.517 289.382 187.336C280.155 221.771 259.197 249.931 231.961 268.668L233.666 274.76C262.864 255.254 285.375 225.471 295.177 188.889C316.618 108.869 269.131 26.6184 189.111 5.17714C109.091 -16.2641 26.8407 31.2232 5.3994 111.243C-16.0419 191.263 31.4455 273.514 111.465 294.955C125.879 298.817 140.364 300.443 154.554 300.045L152.884 294.08C139.742 294.31 126.348 292.731 113.018 289.159Z" fill="#1E6FB7"/>
</svg>
