<svg width="48" height="48" viewBox="0 0 48 48" fill="none" xmlns="http://www.w3.org/2000/svg">
<g clip-path="url(#clip0_943_31)">
<path d="M47.9998 22.5V25.5C47.9271 26.0863 47.8633 26.6738 47.7806 27.2588C47.0956 32.0525 45.1694 36.285 41.9483 39.8988C38.2512 44.0463 33.6563 46.6363 28.1796 47.6263C27.2929 47.7863 26.3937 47.8775 25.5007 48H22.5013C22.3498 47.9712 22.2007 47.9375 22.0479 47.915C21.0448 47.7688 20.0291 47.685 19.041 47.4712C13.2262 46.2112 8.47713 43.2137 4.89658 38.4762C0.754953 32.995 -0.750409 26.8 0.345425 20.0163C1.1457 15.0625 3.36617 10.7938 6.8791 7.21625C10.4734 3.55625 14.8067 1.26 19.8663 0.36875C20.7392 0.215 21.6221 0.12125 22.5013 0C23.5007 0 24.5013 0 25.5007 0C26.3186 0.10625 27.1401 0.18625 27.9517 0.325C32.459 1.09625 36.4478 2.97875 39.8631 6.01875C44.0385 9.735 46.6497 14.35 47.6316 19.865C47.7869 20.7375 47.8783 21.6212 47.9998 22.5ZM23.9666 34.9062C28.0431 34.9062 32.1196 34.9087 36.1961 34.9062C38.2249 34.905 39.466 33.6625 39.466 31.6375C39.4673 26.545 39.4673 21.4538 39.466 16.3612C39.466 14.3362 38.2249 13.0962 36.1936 13.0962C28.0719 13.0937 19.9489 13.095 11.8273 13.0962C9.76709 13.0962 8.53474 14.33 8.53349 16.3875C8.53349 21.4488 8.56856 26.51 8.51471 31.57C8.49467 33.4137 9.79714 34.9588 11.8761 34.9263C15.905 34.8638 19.9352 34.9075 23.9653 34.9075L23.9666 34.9062Z" fill="#1E6FB7"/>
<path d="M23.9667 34.9063C19.9366 34.9063 15.9064 34.8613 11.8775 34.9251C9.79728 34.9576 8.49606 33.4126 8.5161 31.5688C8.5712 26.5088 8.53488 21.4476 8.53488 16.3863C8.53488 14.3288 9.76848 13.0951 11.8286 13.0951C19.9503 13.0938 28.0733 13.0938 36.195 13.0951C38.2263 13.0951 39.4662 14.3363 39.4674 16.3601C39.4687 21.4526 39.4687 26.5438 39.4674 31.6363C39.4674 33.6613 38.2263 34.9038 36.1975 34.9051C32.121 34.9076 28.0445 34.9051 23.968 34.9051L23.9667 34.9063ZM36.9827 16.8326C36.6859 17.0676 36.5031 17.2101 36.3202 17.3551C32.5292 20.3651 28.7383 23.3763 24.9461 26.3863C24.2523 26.9363 23.745 26.9326 23.0537 26.3838C19.4957 23.5576 15.9377 20.7301 12.3784 17.9038C11.9564 17.5688 11.5306 17.2388 11.0196 16.8376C11.0196 17.0988 11.0196 17.2501 11.0196 17.4013C11.0196 22.1038 11.0196 26.8051 11.0196 31.5076C11.0196 32.3213 11.1311 32.4338 11.9313 32.4338C19.9766 32.4338 28.0207 32.4338 36.066 32.4338C36.8675 32.4338 36.9815 32.3201 36.9815 31.5101C36.9815 26.8076 36.9815 22.1063 36.9815 17.4038V16.8326H36.9827ZM13.4906 15.5863C13.6133 15.7026 13.6646 15.7588 13.7235 15.8051C17.0498 18.4476 20.3799 21.0851 23.7 23.7351C23.9517 23.9363 24.102 23.8976 24.3324 23.7138C27.6049 21.1051 30.8849 18.5051 34.1624 15.9013C34.2638 15.8201 34.354 15.7251 34.5017 15.5863H13.4906Z" fill="white"/>
<path d="M36.9829 16.8325V17.4038C36.9829 22.1063 36.9829 26.8075 36.9829 31.51C36.9829 32.32 36.8689 32.4338 36.0674 32.4338C28.0221 32.4338 19.978 32.4338 11.9327 32.4338C11.1325 32.4338 11.021 32.3213 11.021 31.5075C11.021 26.805 11.021 22.1038 11.021 17.4013C11.021 17.25 11.021 17.0988 11.021 16.8375C11.532 17.2388 11.9578 17.5688 12.3798 17.9038C15.9391 20.73 19.4971 23.5563 23.0551 26.3838C23.7464 26.9325 24.2537 26.9375 24.9475 26.3863C28.7397 23.3763 32.5306 20.365 36.3216 17.355C36.5032 17.21 36.686 17.0675 36.9841 16.8325H36.9829Z" fill="#1E6FB7"/>
<path d="M13.4907 15.5863H34.5019C34.3541 15.7238 34.264 15.8201 34.1625 15.9013C30.885 18.5051 27.6051 21.1051 24.3326 23.7138C24.1021 23.8976 23.9519 23.9363 23.7001 23.7351C20.3801 21.0851 17.05 18.4463 13.7237 15.8051C13.6648 15.7588 13.6135 15.7013 13.4907 15.5863Z" fill="#1E6FB7"/>
</g>
<defs>
<clipPath id="clip0_943_31">
<rect width="48" height="48" fill="white"/>
</clipPath>
</defs>
</svg>
