<svg width="46" height="46" viewBox="0 0 46 46" fill="none" xmlns="http://www.w3.org/2000/svg">
<circle cx="23" cy="23" r="23" transform="matrix(1 0 0 -1 0 46)" fill="#1E6FB7"/>
<g clip-path="url(#clip0_629_2084)">
<path fill-rule="evenodd" clip-rule="evenodd" d="M19.6577 17.6658H24.4859V19.7008C25.1814 18.5304 26.965 17.4788 29.6443 17.4788C34.7806 17.4788 36 19.8086 36 24.0832V31.9999H30.8V25.0567C30.8 22.6224 30.1045 21.2496 28.3339 21.2496C25.8782 21.2496 24.8577 22.7291 24.8577 25.0556V31.9999H19.6577V17.6658ZM10.741 31.8129H15.941V17.4788H10.741V31.8129ZM16.6859 12.8049C16.6861 13.1737 16.5997 13.5388 16.4316 13.8791C16.2636 14.2194 16.0172 14.528 15.707 14.7871C15.0783 15.3158 14.2274 15.6117 13.341 15.6099C12.4562 15.6094 11.6072 15.3142 10.9776 14.7882C10.6685 14.5283 10.423 14.2193 10.2552 13.879C10.0875 13.5386 10.0008 13.1736 10 12.8049C10 12.0602 10.351 11.3474 10.9789 10.8216C11.608 10.2949 12.4573 9.99955 13.3423 9.99988C14.2289 9.99988 15.0791 10.2958 15.707 10.8216C16.3336 11.3474 16.6859 12.0602 16.6859 12.8049Z" fill="white"/>
</g>
<defs>
<clipPath id="clip0_629_2084">
<rect width="26" height="22" fill="white" transform="translate(10 9.99988)"/>
</clipPath>
</defs>
</svg>
