<svg width="27" height="45" viewBox="0 0 27 45" fill="none" xmlns="http://www.w3.org/2000/svg">
<path d="M13.4944 44.2058C10.8302 38.5672 0.359375 19.2086 0.359375 14.1041C0.359375 6.85393 6.24107 0.978516 13.4944 0.978516C20.7477 0.978516 26.634 6.85393 26.634 14.1041C26.634 19.2086 16.1632 38.5672 13.4944 44.2058Z" fill="#1E6FB7"/>
<path d="M13.493 44.5632C13.3535 44.5632 13.228 44.4842 13.1676 44.3542C12.605 43.1698 11.6843 41.3398 10.6149 39.2219C6.3885 30.857 0 18.2097 0 14.0992C0 6.66324 6.05373 0.611328 13.4977 0.611328C20.9416 0.611328 27 6.66324 27 14.0992C27 18.2144 20.6115 30.857 16.3804 39.2265C15.311 41.3445 14.3857 43.1744 13.8278 44.3588C13.7674 44.4842 13.6418 44.5678 13.5023 44.5678L13.493 44.5632ZM13.493 1.33588C6.44894 1.33588 0.720683 7.06268 0.720683 14.0992C0.720683 18.0425 7.31841 31.0985 11.2566 38.8968C12.1447 40.6478 12.9304 42.2037 13.493 43.3649C14.0556 42.2037 14.846 40.6478 15.7295 38.8968C19.6723 31.0938 26.27 18.0379 26.27 14.0992C26.27 7.06268 20.5371 1.33588 13.493 1.33588Z" fill="#1E6FB7"/>
<path d="M13.4929 3.57422C19.3142 3.57422 24.0335 8.28849 24.0335 14.1035C24.0335 19.9186 19.3188 24.6328 13.4929 24.6328C7.66704 24.6328 2.95703 19.9186 2.95703 14.1035C2.95703 8.28849 7.67634 3.57422 13.4929 3.57422Z" fill="white"/>
<path d="M13.4923 24.9907C7.48509 24.9907 2.59375 20.1046 2.59375 14.1037C2.59375 8.10291 7.48044 3.2168 13.4923 3.2168C19.5042 3.2168 24.3909 8.10291 24.3909 14.1037C24.3909 20.1046 19.4996 24.9907 13.4923 24.9907ZM13.4923 3.93671C7.8803 3.93671 3.31908 8.4977 3.31908 14.1037C3.31908 19.7098 7.88495 24.2708 13.4923 24.2708C19.0997 24.2708 23.6702 19.7098 23.6702 14.1037C23.6702 8.4977 19.1043 3.93671 13.4923 3.93671Z" fill="white"/>
<path d="M21.2038 13.4443V14.7587C21.2038 15.8409 20.3251 16.7234 19.2371 16.7234H16.1172V19.8399C16.1172 20.9221 15.2385 21.8046 14.1505 21.8046H12.8346C11.7513 21.8046 10.8679 20.9267 10.8679 19.8399V16.7234H7.74801C6.66466 16.7234 5.78125 15.8456 5.78125 14.7587V13.4443C5.78125 12.3621 6.66001 11.4796 7.74801 11.4796H10.8679V8.3631C10.8679 7.28091 11.7466 6.39844 12.8346 6.39844H14.1505C15.2338 6.39844 16.1172 7.27626 16.1172 8.3631V11.4796H19.2371C20.3204 11.4796 21.2038 12.3575 21.2038 13.4443Z" fill="#1E6FB7"/>
<path d="M15.428 14.2173L14.9026 14.7427L13.503 16.1422L12.1035 14.7427L13.503 13.3432L14.0284 12.8178C14.3818 12.4644 14.9537 12.4644 15.3024 12.8178L15.4233 12.9386C15.7767 13.292 15.7767 13.8639 15.4233 14.2126L15.428 14.2173Z" fill="#F9F9F9"/>
<path d="M13.5044 13.3424L12.1049 14.7419L11.5795 14.2165C11.2261 13.8632 11.2261 13.2913 11.5795 12.9426L11.7004 12.8217C12.0537 12.4683 12.6256 12.4683 12.9743 12.8217L13.4997 13.3471L13.5044 13.3424Z" fill="white"/>
</svg>
