<svg width="40" height="45" viewBox="0 0 40 45" fill="none" xmlns="http://www.w3.org/2000/svg">
<path d="M38.4701 18.084L21.605 1.23696C20.5197 0.152784 18.7599 0.152784 17.6791 1.23696L0.813999 18.084C-0.271333 19.1682 -0.271333 20.9261 0.813999 22.0058L17.6791 38.8529C18.7644 39.9371 20.5242 39.9371 21.605 38.8529L38.4701 22.0058C39.5554 20.9216 39.5554 19.1638 38.4701 18.084Z" fill="#1B62A0"/>
<path d="M33.9401 33.3256V5.83313C33.9401 5.03896 33.2969 4.39648 32.5019 4.39648H6.77997C5.98495 4.39648 5.3418 5.03896 5.3418 5.83313V33.3256H33.9401Z" fill="#E7E9ED"/>
<path d="M38.469 22.0066L21.6039 38.8537C20.5186 39.9379 18.7588 39.9379 17.678 38.8537L0.812886 22.0066C0.384113 21.5783 0.133991 21.0474 0.0446632 20.4941C0.0223313 20.6325 0 20.7752 0 20.9225V41.8475C0 43.244 1.13446 44.3772 2.53244 44.3772H36.745C38.143 44.3772 39.2774 43.244 39.2774 41.8475V20.9225C39.2774 20.7752 39.2595 20.6369 39.2327 20.4941C39.1434 21.0474 38.8888 21.5783 38.4645 22.0066H38.469Z" fill="#1E6FB7"/>
<path d="M38.5775 43.6002C38.1086 44.0821 37.4654 44.3765 36.7463 44.3765H2.53825C1.81916 44.3765 1.17154 44.0821 0.707031 43.6002L11.5693 32.7451L17.5274 26.7933C18.6976 25.6288 20.5914 25.6288 21.7616 26.7933L27.7197 32.7451L38.582 43.6002H38.5775Z" fill="#1B62A0"/>
<path d="M26.8296 13.9885V15.1083C26.8296 16.0319 26.0792 16.777 25.1591 16.777H22.5061V19.4272C22.5061 20.3507 21.7557 21.0958 20.8357 21.0958H19.7146C18.7901 21.0958 18.0442 20.3463 18.0442 19.4272V16.777H15.3911C14.4666 16.777 13.7207 16.0274 13.7207 15.1083V13.9885C13.7207 13.0649 14.4711 12.3198 15.3911 12.3198H18.0442V9.66963C18.0442 8.74607 18.7945 8.00098 19.7146 8.00098H20.8357C21.7602 8.00098 22.5061 8.75053 22.5061 9.66963V12.3198H25.1591C26.0837 12.3198 26.8296 13.0694 26.8296 13.9885Z" fill="#1E6FB7"/>
<path d="M21.9171 14.6455L21.4704 15.0921L20.2779 16.2802L19.0898 15.0921L20.2779 13.8996L20.7245 13.453C21.0238 13.1537 21.5106 13.1537 21.8099 13.453L21.9126 13.5557C22.2118 13.8549 22.2118 14.3418 21.9126 14.641L21.9171 14.6455Z" fill="#F9F9F9"/>
<path d="M20.283 13.9049L19.0949 15.0974L18.6483 14.6508C18.349 14.3515 18.349 13.8647 18.6483 13.5654L18.751 13.4627C19.0502 13.1635 19.5371 13.1635 19.8363 13.4627L20.283 13.9094V13.9049Z" fill="white"/>
</svg>
