<svg width="44" height="41" viewBox="0 0 44 41" fill="none" xmlns="http://www.w3.org/2000/svg">
<path d="M34.6805 24.1029C39.8274 24.1029 43.9998 19.935 43.9998 14.7936C43.9998 9.65228 39.8274 5.48438 34.6805 5.48438C29.5337 5.48438 25.3613 9.65228 25.3613 14.7936C25.3613 19.935 29.5337 24.1029 34.6805 24.1029Z" fill="#1E6FB7"/>
<path d="M40.0063 14.3374V15.2435C40.0063 15.9927 39.3982 16.6002 38.6482 16.6002H36.4945V18.7566C36.4945 19.5058 35.8864 20.1133 35.1364 20.1133H34.2293C33.4793 20.1133 32.8712 19.5058 32.8712 18.7566V16.6002H30.7175C29.9675 16.6002 29.3594 15.9927 29.3594 15.2435V14.3374C29.3594 13.5882 29.9675 12.9807 30.7175 12.9807H32.8712V10.8293C32.8712 10.0801 33.4793 9.47266 34.2293 9.47266H35.1364C35.8864 9.47266 36.4945 10.0801 36.4945 10.8293V12.9807H38.6482C39.3982 12.9807 40.0063 13.5882 40.0063 14.3374Z" fill="#F9F9F9"/>
<path d="M36.0104 14.874L35.6506 15.2388L34.6827 16.2067L33.7148 15.2388L34.6827 14.2709L35.0476 13.9061C35.2908 13.6628 35.6861 13.6628 35.9294 13.9061L36.0155 13.9922C36.2587 14.2355 36.2587 14.6307 36.0155 14.874H36.0104Z" fill="#1E6FB7"/>
<path d="M34.6851 14.2709L33.7172 15.2388L33.3524 14.874C33.1091 14.6307 33.1091 14.2355 33.3524 13.9922L33.4385 13.9061C33.6817 13.6628 34.077 13.6628 34.3202 13.9061L34.6851 14.2709Z" fill="#1E6FB7"/>
<path d="M16.357 9.67824C16.6408 10.1136 16.5141 10.6856 16.0783 10.9691L12.4246 13.3331L5.86719 3.01646L9.52089 0.652441C9.9567 0.368961 10.5293 0.495516 10.8131 0.93086L16.357 9.6833V9.67824Z" fill="#1E6FB7"/>
<path d="M32.4726 34.4726C32.7564 34.9079 32.6297 35.48 32.1939 35.7634L28.5402 38.1275L21.9727 27.8817L25.6264 25.5177C26.0622 25.2342 26.6348 25.3608 26.9186 25.7961L32.4777 34.4777L32.4726 34.4726Z" fill="#1E6FB7"/>
<path d="M10.893 14.7211C8.89136 16.0119 8.98257 19.7782 11.9674 24.3847C14.9521 28.9913 18.3474 30.6213 20.3491 29.3254L26.9369 39.4952C22.1481 42.5882 14.4505 41.0898 6.06367 28.1307C-2.37886 15.0906 -1.05623 7.88215 4.25456 4.45508L10.8981 14.716L10.893 14.7211Z" fill="#1E6FB7"/>
</svg>
